<?xml version="1.0" encoding="utf-8"?>
<!-- Generator: Adobe Illustrator 18.1.1, SVG Export Plug-In . SVG Version: 6.00 Build 0)  -->
<svg version="1.1" id="mountains" xmlns="http://www.w3.org/2000/svg" xmlns:xlink="http://www.w3.org/1999/xlink" x="0px" y="0px"
	 viewBox="0 0 600 300" style="enable-background:new 0 0 600 300;" xml:space="preserve">
<style type="text/css">
	.st0{display:none;fill:url(#_x30__1_);}
	.st1{display:none;fill:url(#_x31__1_);}
	.st2{display:none;fill:url(#_x32__1_);}
	.st3{display:none;fill:url(#_x33__1_);}
	.st4{display:none;fill:url(#_x34__1_);}
	.st5{fill:url(#_x35__1_);}
	.st6{display:none;fill:url(#_x36__1_);}
	.st7{display:none;fill:url(#_x37__1_);}
	.st8{display:none;fill:url(#_x38__1_);}
	.st9{display:none;fill:#333333;}
</style>
<linearGradient id="_x35__1_" gradientUnits="userSpaceOnUse" x1="300.2798" y1="300.2597" x2="300.2798" y2="24.6269">
	<stop  offset="0" style="stop-color:#CCCCCC"/>
	<stop  offset="6.668973e-02" style="stop-color:#B9B9B9"/>
	<stop  offset="0.1759" style="stop-color:#A1A1A1"/>
	<stop  offset="0.2996" style="stop-color:#8E8E8E"/>
	<stop  offset="0.4446" style="stop-color:#818181"/>
	<stop  offset="0.6305" style="stop-color:#797979"/>
	<stop  offset="1" style="stop-color:#777777"/>
</linearGradient>
<path id="_x35_" class="st5" d="M0.3,218.6c0-5.2,0-10.4,0-15.7c0.8,0.1,0.7-0.6,0.8-1c0.3-0.9,0.6-1.8,1.5-2.2
	c1.5-0.7,3.1-1.4,4.6-2.1c0.1,0,0.2,0,0.2,0.1c0.1,0.1,0.3,0.2,0.4,0.4c2,2,4.4,3.1,7.4,2.8c2.2-0.2,4.1-0.8,5.7-2.5
	c4.1-4.3,8.5-8.4,13.1-12.2c0.9-0.8,2-1.3,3.1-1.9c0.4-0.2,0.8-0.4,1.1-0.7c1.3-1.1,2.5-2.3,3.8-3.5c0.4-0.3,0.8-0.6,1.3-0.7
	c2.3-0.5,4.2-1.6,5.9-3.3c1.6-1.5,3.2-3,4.9-4.4c1-0.9,2-1.5,3.4-1.6c1.2-0.1,2.3-0.5,3.5-1c0.9-0.3,1.9-0.6,2.8-0.7
	c0.8-0.1,1.6,0,2.4-0.1c0.6-0.1,1.3-0.1,1.9-0.4c1.7-0.9,3.5-1.9,5-3c4.3-3.3,8.1-7.1,11.8-11.1c0.6-0.6,1.2-1.2,1.9-1.6
	c2.7-1.5,4.9-3.4,6.7-5.8c0.4-0.5,0.9-0.8,1.6-1c1.7-0.4,3.4-0.6,4.9-1.5c0.2-0.1,0.5-0.2,0.8-0.2c2-0.1,4-0.2,6-0.4
	c2-0.2,4.1-0.2,6-1.1c1.2-0.6,2.4-0.8,3.7-0.7c2.7,0.3,5.1-0.7,7.5-1.8c1.1-0.5,2.3-1.1,3.4-0.9c1.9,0.2,3.9,0.4,5.6,1.7
	c1.2,0.9,2.5,1.1,3.9,1.1c6.4,0,12.9,0,19.3,0c3.9,0,3.2,0.1,5.6-2.3c1.7-1.7,3.5-2.8,5.8-3.4c1.1-0.3,2-0.9,3-1.4
	c0.3-0.1,0.7-0.3,1-0.3c2.1,0,4.3,0.1,6.4,0.2c1.6,0,3.2,0.4,4.5,1.3c1.1,0.8,2.2,1.7,3.3,2.5c0.3-0.4,0.6-0.9,0.8-1.2
	c0.6,0.1,1.3,0.4,1.6,0.2c2-0.9,4.3-1.4,5.9-3c1.1-1.1,2.4-1.5,3.9-1.5c1,0,1.9-0.3,2.8-0.7c1.4-0.5,2.8-0.9,4.3-1.3
	c1.8-0.5,3.6-0.9,5.4-1.3c0.4-0.1,0.8-0.3,1.1-0.5c0.6-0.3,1.2-0.5,1.8-0.8c0.5-0.2,0.9-0.4,1.3-0.7c0.8-0.7,1.6-1.5,2.2-2.3
	c0.6-0.7,1.1-1.5,1.4-2.4c0.3-0.9,0.7-1.4,1.5-1.9c0.9-0.6,1.9-1.2,2.4-2.2c0.6-1.3,1.7-2.3,2.6-3.4c0.9-1.1,1.9-1.6,3.4-1.6
	c2.4,0.1,3.9-1.5,5-3.3c0.8-1.3,1.5-2.4,2.6-3.5c1.1-1.1,2.4-2,4.1-2.3c1.4-0.3,2.7-0.5,4.1-0.5c2.4,0,4.8-0.3,7.2-0.5
	c0.5,0,1.1-0.3,1.5-0.6c0.6-0.3,1.1-0.8,1.7-1.2c0.6-0.4,1.3-0.8,2.2-0.9c0.1,0.8,0.1,1.5,0.2,2.2c0.8,0.1,1.6,0.2,2.4,0.3
	c1.6,0.1,3.2,0.2,4.7,0.3c1.4,0.1,2.7-0.1,4-0.5c1-0.3,2-0.5,3-0.6c1.9-0.3,3.7-0.7,5.2-2.2c0.7-0.7,1.4-1.4,2.2-1.9
	c2-1.3,4-2.6,5.4-4.3c1.2-0.1,2.2,0,3.2-0.2c1.2-0.2,2.3-0.6,3.5-0.7c2.7-0.1,5.5-0.1,8.2-0.1c1.1,0,2.2,0.1,3.3,0.2
	c2.7,0.3,5.4,0.7,8.1,0.5c0.5,0,1-0.2,1.5-0.2c2.7,0.2,5.5,0.1,8,1.4c0.4,0.2,1,0.3,1.4,0.6c1.1,0.8,2.2,1.7,3.3,2.5
	c0.5,0.4,1.1,0.9,1.5,1.4c0.5,0.7,1.2,1,2,1c0.5,0,1,0,1.5,0c3.6,0.1,7.2-0.3,10.7-0.4c2-0.1,3.3-0.8,4.4-2.3
	c0.4-0.6,0.8-1.3,1.2-1.9c0.5-0.7,1.1-1.4,1.7-2c0.5-0.4,1.1-0.7,1.7-0.8c1.8-0.3,3.6-0.4,5.4-0.6c0.8-0.1,1.7-0.3,2.5-0.4
	c1.9-0.2,3.5-1.7,5.5-1.7c0.1,0,0.3-0.2,0.4-0.3c0.6-0.8,1.5-0.8,2.4-0.7c1.3,0.1,2.6,0.2,3.9,0c3.6-0.7,7.1-0.5,10.7-0.4
	c3.3,0,6.6,0,9.9-0.5c1.6-0.2,3.3-0.5,4.9-1.2c1.2-0.5,2.3-0.8,3.6-0.4c0.1,0,0.3,0.1,0.4,0.1c1.9,0.2,3.8,0.7,5.7-0.1
	c1.2-0.5,2.4-1.1,3.5-1.6c0.5-0.2,0.9-0.5,1.4-0.6c1.2-0.5,2.4-0.8,3.5-1.3c1.6-0.8,3.3-0.9,5-0.8c2.4,0.1,4.7,0.1,7.1-0.1
	c1.4-0.1,2.7-0.7,4.1-0.9c0.8-0.2,1.5-0.4,2.1-1c1.3-1.4,2.7-2.7,4-4.1c0.8-0.9,1.8-1.1,2.9-0.8c0.8,0.2,1.6,0.3,2.3,0.3
	c1,0.1,1.8,0.2,2.6,0.9c0.5,0.4,1,0.5,1.7,0.4c1.7-0.3,3.3-0.5,5-0.6c1.3-0.1,2.6-0.4,3.7-1.1c1.2-0.8,2.6-1.1,4-1.5
	c0.5-0.1,0.9-0.4,1.3-0.8c0.4-0.3,0.6-0.7,0.9-1c1.5-1.6,1.5-1.6,1.8-3.7c1.2-0.5,2.5-0.9,3.8-1.5c1-0.5,2-0.7,3.1-0.7
	c0.7,0,1.3,0,2,0c1.7,0.1,3-0.5,4.1-1.7c0.3-0.3,0.7-0.6,1.1-0.8c1.5-0.6,2.9-1.1,4.5-1.3c0.8-0.1,1.6-0.5,2.4-0.8
	c0.6-0.2,1.2-0.6,1.8-0.6c2,0,3.5-1.2,5.2-1.9c1.2-0.5,2-1.4,2.7-2.5c0.9-1.4,1.9-2.8,2.8-4.1c0.2-0.3,0.2-0.6,0.3-0.9
	c0.6-1.8,0.6-3.8,1.4-5.6c0.1-0.3,0.1-0.6,0-0.9c-0.1-0.4-0.3-0.8-0.4-1.2c0.7-0.3,1.3-0.6,1.9-0.7c2.1-0.5,3.6-1.9,5-3.4
	c0.3-0.3,0.4-0.6,0.5-1c0.4-1.1,0.8-2.3,1-3.5c0.1-0.9,0.5-1.5,1.2-1.9c0.9-0.7,1.9-1.3,2.9-2c1.5-1.2,3.1-2,5.1-1.9
	c0.6,0,1.1,0,1.7-0.1c1.9-0.2,3.8-0.4,5.7-0.5c2.7-0.2,5.4-0.2,8.1-0.3c4.9-0.3,9.9-0.7,14.8-1c5.7-0.3,11.3-0.6,17-0.9
	c4-0.2,7.9-0.4,11.9-0.6c1.4-0.1,2.7-0.1,4.1-0.1c5.3-0.3,10.6-0.5,15.9-0.8c1.2-0.1,2.5-0.3,3.7-0.5c0.6,0,1.1,0,1.7,0
	c0.4,0.3,1,0.3,1,1c0,0,0.2,0.1,0.4,0.1c0,91.5,0,183,0,274.5c-200,0-400,0-600,0c0-25.1,0-50.2,0-75.3c0.1-0.3,0.2-0.5,0.2-0.8
	c0-1.6,0-3.3,0-4.9C0.5,219.1,0.4,218.8,0.3,218.6z"/>
</svg>
