<?xml version="1.0" encoding="utf-8"?>
<!-- Generator: Adobe Illustrator 18.1.1, SVG Export Plug-In . SVG Version: 6.00 Build 0)  -->
<svg version="1.1" id="mountains" xmlns="http://www.w3.org/2000/svg" xmlns:xlink="http://www.w3.org/1999/xlink" x="0px" y="0px"
	 viewBox="0 0 600 300" style="enable-background:new 0 0 600 300;" xml:space="preserve">
<style type="text/css">
	.st0{display:none;fill:url(#_x30__1_);}
	.st1{display:none;fill:url(#_x31__1_);}
	.st2{display:none;fill:url(#_x32__1_);}
	.st3{display:none;fill:url(#_x33__1_);}
	.st4{fill:url(#_x34__1_);}
	.st5{display:none;fill:url(#_x35__1_);}
	.st6{display:none;fill:url(#_x36__1_);}
	.st7{display:none;fill:url(#_x37__1_);}
	.st8{display:none;fill:url(#_x38__1_);}
	.st9{display:none;fill:#333333;}
</style>
<linearGradient id="_x34__1_" gradientUnits="userSpaceOnUse" x1="300.2798" y1="300.2798" x2="300.2798" y2="51.7724">
	<stop  offset="0" style="stop-color:#CCCCCC"/>
	<stop  offset="0.2237" style="stop-color:#B4B4B4"/>
	<stop  offset="0.5124" style="stop-color:#9C9C9C"/>
	<stop  offset="0.7789" style="stop-color:#8D8D8D"/>
	<stop  offset="1" style="stop-color:#888888"/>
</linearGradient>
<path id="_x34_" class="st4" d="M600.3,145.2c0,51.7,0,103.4,0,155c-200,0-400,0-600,0c0-42.8,0-85.6,0-128.5
	c0.1-0.4,0.2-0.9,0.2-1.3c0-2.1,0-4.1,0-6.2c0-9.6,0-19.1,0-28.7c0-0.5,0-1,0-1.4c0.6,0.1,1.2,0.3,1.7,0.3c5,0,10.1,0.2,15.1,0
	c4-0.1,8.1,0.3,12.1-0.5c3.5-0.6,7.1-0.5,10.6-0.6c1.6-0.1,3.3,0.1,4.9,0c1.5-0.1,3.1-0.3,4.6-0.6c1.5-0.3,2.6-0.1,3.8,1
	c1.3,1.2,2.8,2.3,4.4,3.2c1.3,0.7,2.3,1.6,3.2,2.9c0.4,0.6,0.7,1.2,1.2,1.7c1.2,1.5,2.1,3.1,2.7,5.1c1,3.3,3.3,5.7,6.7,6.9
	c0.2,0.1,0.4,0.1,0.5,0.2c0.3,0.2,0.6,0.4,0.8,0.7c1.1,1.4,2.3,2.8,3.4,4.3c0.5,0.7,1,1.3,1.5,2c-0.3,0.4-0.6,0.8-0.8,1.1
	c-0.3,0.4-0.4,0.9,0,1.3c0.9,1.1,1.9,2.1,3.2,3.3c0-1,0-1.6,0-2.3c0-1.3,0-2.5,0.1-3.8c0.2-2.6,2.4-4,3.7-5.9
	c0.8-1.2,2.3-1.9,3.6-2.7c2-1.2,3.8-2.7,5.3-4.5c0.9-1,1.8-1.8,3.2-2.2c0.6-0.2,1.1-0.5,1.6-0.8c0.7-0.5,1.4-0.7,2.2-0.6
	c2.6,0.2,2.8-0.1,4.2-2.3c1.5-2.4,3-5,5.9-6c0.3-0.1,0.7-0.4,0.9-0.6c0.9-0.9,2-1.1,3.2-1.1c0.4,0,1,0.1,1.2-0.1
	c1.1-1,2.6-1.2,3.9-1.8c1.5-0.7,3-1.3,4.6-1.5c3.4-0.4,6.7-0.7,10.1-1.4c2-0.4,3.8-1.1,5.5-2.4c0.7-0.5,1.4-0.7,2.2-0.7
	c2.7,0.1,5.3-0.2,7.9-0.9c2.1-0.6,4.1-1.2,6.2-1.7c1.6-0.4,3.2-0.7,4.4-1.8c0.2-0.2,0.6-0.3,0.9-0.4c1.4-0.7,2.9-1.4,4.3-2
	c0.2-0.1,0.4-0.2,0.6-0.2c2.2-0.5,3.9-1.9,5.6-3.2c0.5-0.4,0.7-0.9,0.7-1.6c0-0.4,0-1,0.2-1.3c0.8-1.2,1.7-2.3,2.6-3.5
	c0.2-0.3,0.7-0.6,1-0.7c1.2-0.1,1.8-1.1,2.5-1.7c0.7-0.6,1.3-1.5,2.3-1.8c2.1-0.6,4.1-1.3,6.1-1.8c2.2-0.6,4.4-0.9,6.6-0.8
	c0.6,0,1.3-0.1,1.9-0.2c2-0.2,4.1-0.4,6.1-0.4c1.9,0,3.7,0.2,4.8,2.1c0.2,0.3,0.7,0.4,1.1,0.5c1.5,0.3,3,0.5,4.5,0.8
	c0.3,0.1,0.6,0.2,0.8,0.4c0.9,0.7,1.8,0.7,2.9,0.4c2-0.6,3.9-1.1,5.8-1.5c0.2,0.2,0.3,0.2,0.4,0.3c1.5,2.3,3.9,2.7,6.2,3.4
	c0.2,0.1,0.6,0,0.8,0c1.5-0.3,3-0.5,4.5-0.9c1.1-0.3,2.1-0.6,3.2-0.9c0.9-0.2,1.8-0.5,2.7-0.6c2.5-0.1,4.9-0.2,7.4-0.2
	c0.9,0,1.7-0.2,2.4-0.8c0.8-0.7,1.8-1.1,2.9-1.2c1.1-0.1,2.1-0.2,3.2-0.3c0.7-0.1,1.4-0.2,2-0.4c0.8-0.3,1.5-0.6,2.4-1
	c0-0.3,0-0.8,0-1.3c0-1.4,0-2.7,0-4.1c0-1,0.4-1.8,1-2.6c0.4-0.6,1-0.7,1.7-0.8c0.2,0,0.4-0.2,0.6-0.3c1.6-0.8,3.1-1.7,4.8-2.3
	c1.3-0.5,2.8-0.5,4.3-0.7c2.1-0.2,4.2-0.4,6.3-0.5c2-0.2,4.1-0.5,6.1-0.5c1.4,0,2.7-0.3,4-0.7c0.7-0.3,1.5-0.4,2.3-0.5
	c1.6-0.2,3.1-0.4,4.6-1.1c0.8-0.4,1.6-0.8,2.3-1.3c1.2-0.8,2.3-0.7,3.6-0.3c1.5,0.5,2.9,1,4.4,1.3c2.5,0.4,5,0.7,7.5,0.9
	c1.4,0.1,2.9,0.1,4.3,0c1.8-0.1,3.5-0.2,5.3-0.3c0.3-0.3,0.7-0.8,1.2-1c2.1-0.6,3.8-1.7,5.5-3c0.8-0.6,1.4-1.2,1.5-2.3
	c0.3-2,1.6-3,3.6-3.2c0.7-0.1,1.5-0.1,2.2-0.1c2.9,0,5.9,0.1,8.8,0.1c2,0,4,0.1,6,0.1c1.2,0,2.5,0.1,3.7-0.6
	c1.2,0.7,2.5,0.5,3.7,0.4c0.9-0.1,1.8-0.2,2.6-0.3c0.7-0.1,1.4-0.2,2.1-0.3c0.4,1.4,1,1.7,2.5,1.8c1.9,0.2,3.8-0.1,5.7-0.4
	c1.1-0.2,2.2-0.2,3.4-0.3c0.1,1.4,0.3,2.6,0.4,3.9c1.2,0.4,1.2,0.4,5.1-0.4c0.5-1.7,0.9-3.5,1.4-5.3c0.4,0,0.8,0.1,1.2,0
	c1.1-0.2,2.3-0.1,3-1.3c0.6-1,1.5-1.5,2.4-2c2.3-1.2,4.5-2.5,6.8-3.9c1-0.6,1.6-1.4,1.6-2.7c0-1.6,0.7-2.8,2.2-3.6
	c0.9-0.5,1.8-1,2.8-0.8c0.4,0,0.7-0.1,1.1-0.1c1.4-0.1,2.9-0.3,4.3-0.4c1.1-0.1,2.1-0.2,3.2-0.5c3.1-0.9,6.2-1.9,9.4-2.8
	c-0.2-1-0.5-2-0.7-3.1c1.4-0.2,2.4,0.5,3.4,1.1c0.2-0.6,0.3-1,0.5-1.5c1.7,0,1,1.7,1.6,2.2c0.9,0.2,1.5,0.4,2.2,0.6
	c3,1.1,6.2-0.4,7.3-3.4c0.2-0.5,0.6-1,0.8-1.5c0.2,0,0.4,0,0.6,0c0.3,0.4,0.6,0.8,1,1.1c0.5,0.4,0.9,1,0.9,1.6
	c-0.1,1.2,0.6,1.8,1.5,2.3c1,0.6,1.9,1.3,3,1.8c1.1,0.5,2.2,0.9,3.3,0.9c2-0.2,3.4,0.8,4.8,1.8c0.3,0.2,0.6,0.5,0.7,0.8
	c0.5,1,0.9,2.1,1.4,3.4c1,0.5,2.2,1.1,3.4,1.6c1.4,0.6,2.9,1.1,4.3,1.7c0.9,0.4,1.8,0.7,2.7,1.1c0.5,0.2,1,0.4,1.5,0.7
	c1.3,0.9,2.6,2,4,2.8c2.6,1.6,5.4,2.2,8.4,2c1.1-0.1,2.1-0.1,3.2-0.1c4.5-0.1,3,0.5,6.2-2.5c0.5-0.5,1-0.7,1.7-0.7
	c1.8,0.1,3.6,0.1,5.5,0.1c1.9-0.1,3.6,0.6,5.4,1.3c2,0.8,4.1,1.5,6.1,2.3c0.4,0.1,0.8,0.3,1.1,0.5c1.2,0.8,2.5,1.1,3.9,1.5
	c3.2,0.8,6.5,1.7,9.7,2.6c2.4,0.7,4.8,1.8,7.3,2.5c1.5,0.5,2.9,1,4,2.2c0.4,0.4,0.8,0.6,1.4,0.6c1.4,0,2.7,0,4.1,0
	c0.9,0,1.7,0.3,2.3,1c3.3,3.3,6.6,6.6,10,9.8c0.6,0.6,1.3,1.2,2,1.7c3.1,2.2,6.5,4,9.1,6.9c0.4,0.5,0.9,0.6,1.5,0.6c1.7,0,3.4,0,5,0
	c4.2,0.1,8.5,0.2,12.7,0.3c1.3,0,2.3,0.6,3.3,1.4c1,0.8,2.1,1.5,3.1,2.3c1.4,1.2,2.8,2.4,4,3.7c1.1,1.2,1.8,2.6,2.8,3.8
	c1.7,2.1,3.4,4.2,5.2,6.3c0.9,1.1,1.3,2.4,1.3,3.8c0,2,0.1,4,0.2,6c0,0.6,0,1.1,0.5,1.5c0.7,0.5,0.7,1.1,0.7,1.9
	c0,2.5-0.1,4.9-0.1,7.4C600,144.4,600.2,144.8,600.3,145.2z"/>
</svg>
