<?xml version="1.0" encoding="utf-8"?>
<!-- Generator: Adobe Illustrator 18.1.1, SVG Export Plug-In . SVG Version: 6.00 Build 0)  -->
<svg version="1.1" id="mountains" xmlns="http://www.w3.org/2000/svg" xmlns:xlink="http://www.w3.org/1999/xlink" x="0px" y="0px"
	 viewBox="0 0 600 300" style="enable-background:new 0 0 600 300;" xml:space="preserve">
<style type="text/css">
	.st0{fill:url(#_x30__1_);}
	.st1{display:none;fill:url(#_x31__1_);}
	.st2{display:none;fill:url(#_x32__1_);}
	.st3{display:none;fill:url(#_x33__1_);}
	.st4{display:none;fill:url(#_x34__1_);}
	.st5{display:none;fill:url(#_x35__1_);}
	.st6{display:none;fill:url(#_x36__1_);}
	.st7{display:none;fill:url(#_x37__1_);}
	.st8{display:none;fill:url(#_x38__1_);}
	.st9{display:none;fill:#333333;}
</style>
<linearGradient id="_x30__1_" gradientUnits="userSpaceOnUse" x1="0.2799" y1="172.2419" x2="600.2798" y2="172.2419">
	<stop  offset="0" style="stop-color:#CCCCCC"/>
	<stop  offset="1" style="stop-color:#CCCCCC"/>
</linearGradient>
<path id="_x30_" class="st0" d="M600.3,138.1c0,54.1,0,108.2,0,162.3c-200,0-400,0-600,0c0-54.2,0-108.4,0-162.6
	c0.1-1.7,0.4-3.5,0.4-5.2c0-1.3-0.2-2.7-0.2-4c0-13.7,0-27.4,0-41.1c0-0.5,0-1,0.1-1.5c0.3,0,0.6-0.1,0.8-0.1
	c5.8-0.1,11.6-0.3,17.3-0.4c8.2-0.1,16.3-0.2,24.5-0.3c0.8,0,1.7-0.1,2.5-0.3c3.9-0.9,7.8-1.5,11.7-1.5c0.6,0,1.1-0.1,1.5-0.5
	c0.6-0.6,1.4-0.8,2.3-0.9c0.7-0.1,1.3-0.3,2-0.5c1.7-0.6,3.3-1.5,4.7-2.7c0.7-0.6,1.6-1.1,2.4-1.7c0.3-0.2,0.7-0.4,1-0.3
	c1.4,0.2,2.4-0.4,3.2-1.5c0.4-0.4,0.8-0.8,1.2-1.1c1.2-0.9,2.4-1.8,3.6-2.6c0.6-0.4,1.2-0.6,1.8-1.1c2.1-1.7,4.3-3.2,6.8-4.4
	c2.1-1,4.1-2.2,5.9-3.7c2.8-2.3,5.9-4.1,9.8-3.8c0.3,0,0.7-0.1,0.9-0.3c0.7-0.8,1.6-0.8,2.5-0.8c0.7,0,1.5,0.1,2.1-0.5
	c0.8-0.8,1.6-1.6,2.4-2.5c-0.8-0.2-1.5-0.2-1.7-1.2c0.2,0,0.4-0.1,0.5-0.1c8.1-0.1,16.2-0.3,24.3-0.4c7.6-0.1,15.2-0.1,22.8-0.2
	c0.8,0,1.5-0.2,2.1-0.8c0.7-0.8,1.6-1.5,2.5-2.3c0.5-0.4,0.9-0.6,1.6-0.4c1.9,0.6,3.8,0.8,5.8,0.7c3-0.1,6-0.1,8.9-0.1
	c0.6,0,1.2-0.1,1.8-0.1c3.4-0.1,6.8-0.3,10.2-0.4c1.8-0.1,3.6,0.1,5.4-0.2c1.7-0.2,3.3-0.4,5.1-0.2c1.5,0.2,3.1,0.1,4.6,0.2
	c1.4,0,2.8,0.1,4.2,0c3.5-0.4,7-0.6,10.5-0.6c4.7,0,9.3-0.2,14-0.4c2.6-0.1,5.1-0.2,7.7-0.3c0.7,0,1.4-0.2,2.1-0.3
	c0.5-0.1,0.9-0.1,1.2,0.4c0.6,0.9,1.4,0.9,2.4,0.8c3.4-0.2,6.8-0.4,10.2-0.4c4.8-0.1,9.5,0,14.3,0c0.1,0,0.3,0,0.4,0
	c2.5-0.2,4.9-0.5,7.4-0.6c3.6-0.2,7.2-0.2,10.8-0.3c4.3-0.2,8.7-0.4,13-0.5c3.5,0,7.1-0.6,10.6,0.1c0.2,0,0.4-0.1,0.5-0.1
	c0.8-0.1,1.6-0.4,2.3-0.4c3.5,0,7-0.3,10.5-0.1c3.8,0.2,7.5,0,11.3-0.2c6-0.2,12-0.6,18-0.9c2.9-0.1,5.8-0.2,8.7-0.3
	c1,0,2,0.2,3,0.3c0.7-0.2,1.4-0.4,2.2-0.5c1.1-0.1,2.1-0.2,3.2-0.2c1.9,0,3.8,0,5.7,0c3.9,0,7.8-0.1,11.7-0.1c1.1,0,2.2,0.1,3.4,0.1
	c0.7,0,1.3-0.3,2-0.4c2,0,3.9,0,5.9,0c0.2,0.1,0.4,0.2,0.6,0.2c1.1,0.1,1.9,0.5,2.5,1.4c1.6,2.4,3.5,4.6,5.6,6.6
	c0.6,0.6,1.1,1.2,1.7,1.9c1,1.1,2,2.2,3,3.3c0.7,0.8,1.5,1,2.5,0.5c1.2-0.5,2.3-0.6,3.5,0.1c0.6,0.4,1.3,0.5,1.9,0.8
	c1.9,0.7,3.7,1.6,5,3.2c0.5,0.6,1,0.7,1.7,0.7c1.2-0.1,2.2,0.2,3.2,0.9c3.4,2.2,7.2,3.3,11,4.2c1.8,0.4,3.6,0.4,5.3,1.1
	c1.3,0.5,2.4,1,3.3,2c0.8,0.9,1.7,1.7,2.6,2.6c0.5,0.5,1,0.8,1.7,0.5c0.8-0.4,1.5,0,2.1,0.6c1.2,1.3,2.5,2.5,3.8,3.8
	c1.8,1.8,4.1,2.3,6.4,2.7c0.2,0,0.5,0.1,0.7,0c1.2-0.5,2.1,0,3,0.7c1,0.7,2.1,1.4,3.2,2.1c3.4,2,6.9,3.8,11,3.6
	c0.5,0,1.1,0.3,1.4,0.7c0.5,0.5,1,0.7,1.7,0.7c2.3,0,4.6,0.1,6.8,0.1c6.2,0.1,12.5,0.2,18.7,0.3c0.7,0,1.3,0,2,0
	c0.4,0,0.9,0.2,1.1,0.4c0.5,0.6,1.2,0.7,1.9,0.6c3.5-0.1,7-0.2,10.5-0.1c8.2,0.1,16.5,0.3,24.7,0.4c7.2,0.1,14.4,0.3,21.5,0.4
	c1.2,0,2.5,0.1,3.6,0.5c3,1.1,6.1,1.5,9.3,2c2.2,0.3,4.3,0.9,6.3,1.8c1.7,0.7,2.7,1.9,2.7,4.1c-0.1,12.4-0.1,24.9-0.1,37.3
	C600,137,600.2,137.6,600.3,138.1z"/>
</svg>
