<?xml version="1.0" encoding="utf-8"?>
<!-- Generator: Adobe Illustrator 18.1.1, SVG Export Plug-In . SVG Version: 6.00 Build 0)  -->
<svg version="1.1" id="mountains" xmlns="http://www.w3.org/2000/svg" xmlns:xlink="http://www.w3.org/1999/xlink" x="0px" y="0px"
	 viewBox="0 0 600 300" style="enable-background:new 0 0 600 300;" xml:space="preserve">
<style type="text/css">
	.st0{display:none;fill:url(#_x30__1_);}
	.st1{display:none;fill:url(#_x31__1_);}
	.st2{fill:url(#_x32__1_);}
	.st3{display:none;fill:url(#_x33__1_);}
	.st4{display:none;fill:url(#_x34__1_);}
	.st5{display:none;fill:url(#_x35__1_);}
	.st6{display:none;fill:url(#_x36__1_);}
	.st7{display:none;fill:url(#_x37__1_);}
	.st8{display:none;fill:url(#_x38__1_);}
	.st9{display:none;fill:#333333;}
</style>
<linearGradient id="_x32__1_" gradientUnits="userSpaceOnUse" x1="0.2799" y1="170.569" x2="600.2798" y2="170.569">
	<stop  offset="0" style="stop-color:#CCCCCC"/>
	<stop  offset="0.2486" style="stop-color:#BFBFBF"/>
	<stop  offset="0.6688" style="stop-color:#B0B0B0"/>
	<stop  offset="1" style="stop-color:#AAAAAA"/>
</linearGradient>
<path id="_x32_" class="st2" d="M600.3,65.5c0,78.3,0,156.5,0,234.8c-200,0-400,0-600,0c0-60.7,0-121.5,0-182.2
	c0.1-1.1,0.3-2.2,0.3-3.3c0-11.9,0-23.8,0-35.7c0-1.7,0.2-3.3,0.3-5c0.1-2.1,0.1-4.3,0.1-6.4c0.1-3.3-0.5-6.7,0.3-10
	c0.1-0.5,0.1-1,0.2-1.5c0.1-2.3,0.2-4.6,0.3-6.8c0-0.7,0-1.4,0.3-2.1c0.4-1,0.6-2-0.4-3.1c0.8-0.1,1.4-0.2,2-0.3
	c2.7-0.1,5.5-0.3,8.2-0.2c5.9,0.1,11.8,0.3,17.8,0.4c1.3,0,2.6,0.1,3.9,0.1c2.1,0,4.3-0.1,6.4-0.1c0.4,0,0.8,0,1.3,0
	c2.8,0,5.6,0,8.4,0c2.3,0,4.6,0.3,6.8,0.3c3.9-0.1,7.8-0.3,11.7-0.4c4.6-0.1,9.1,0,13.7,0c2.1,0,4.1,0,6.2,0c4.6,0,9.2-0.1,13.8,0
	c2.1,0,4.3,0,6.3,0.9c1.7,0.8,3.4,1,5.1,1c3.6,0,7.3,0.1,10.9,0.2c1.9,0.1,3.7,0.3,5.6,0.3c5,0,10-0.2,15-0.3c3.4,0,6.8,0,10.2-0.1
	c1.5,0,2.9,0.5,4.2,1.3c1.2,0.7,2.3,1.6,3.6,1.4c0.7,0.9,1.2,1.6,1.8,2.3c0.9,1,1.8,2.1,1.9,3.5c0,0.3,0.3,0.7,0.5,1
	c1,1,2,2.1,3.1,3.1c0.6,0.5,1.4,0.8,2.1,0.9c2.1,0.2,4.2,0.3,6.3,0.4c1.7,0.1,3.4,0.1,5,0.2c2,0.1,3.5,1.1,4.9,2.5
	c0.2,0.2,0.4,0.4,0.4,0.6c0,1,0.8,1.4,1.5,1.6c0.6,0.3,1.4,0.4,2,0.4c1.4,0,2.9,0,4.3,0c0.9,0,1.8,0.2,2.6,0.2
	c1.8-0.1,3.6,0.1,5.4,0.7c0.8,0.3,1.6,0.4,2.4,0.5c0.7,0.1,1.3,0.4,1.8,0.9c0.7,0.7,1.5,1.4,2.3,2c1,0.9,2.2,1.3,3.6,1.3
	c0.9,0,1.9,0.1,2.8,0c1-0.1,1.9,0.2,2.5,0.9c0.6,0.6,1.2,0.8,2,0.7c0.6-0.1,1.2,0,1.8-0.1c2-0.1,4.1-0.2,6.1-0.4
	c0.4,0,0.8-0.1,1-0.3c1.3-1.2,3.1-1.4,4.7-1.4c3,0,6,0.5,9,0.8c0.3,0,0.6,0.3,0.8,0.5c1.3,1.3,2.9,2,4.7,2.3c0.5,0.1,1,0.3,1.5,0.3
	c1.1,0.1,2.1,0.3,3.2,0.3c0.8,0,1.5-0.3,2.1-0.8c0.6-0.5,1.2-1,1.8-1.4c1,0.8,1.8,1.5,2,2.6c0.4,1.8,1.4,3.1,3,4
	c0.5,0.3,1,0.6,1.5,1c1,0.6,2,1,2.9,1.7c0.6,0.5,1.2,0.6,1.9,0.7c1.1,0.1,2.1,0.4,3.1,0.6c2.3,0.5,4.4,1.6,6.5,2.8
	c0.3,0.2,0.6,0.3,0.8,0.5c0.4,0.4,0.8,0.5,1.4,0.5c1.7,0,3.4,0.1,5.2,0.2c0.2,0,0.5,0,0.7-0.1c1-0.3,1.9-0.7,2.9-1
	c0.9-0.4,1.9-0.4,2.7,0.2c0.8,0.5,1.4,0.6,2.2,0.1c0.6-0.4,1.2-0.4,1.9-0.3c1,0.1,2.1,0.1,3-0.3c1-0.4,1.8-0.4,2.8-0.1
	c1.7,0.5,3.4,0.5,4.9-0.6c0.3-0.2,0.8-0.3,1.2-0.3c0.6-0.1,1.3,0,2,0c0.8,0,1.4-0.1,2-0.7c0.3-0.3,0.7-0.4,1.1-0.4
	c0.6-0.1,1.1,0,1.7,0c1.2,0,2.3-0.4,3.2-1.2c0.3-0.3,0.6-0.5,0.8-0.7c0.7-0.6,1.4-1,2.3-1.1c2.6-0.5,5.2-1,7.8-1.5
	c0.5-0.1,1-0.3,1.4-0.6c1.9-1,4.1-1.5,5.8-3c0.2-0.2,0.6-0.3,0.9-0.4c1-0.4,1.8-1.1,2.6-1.8c1.8-1.7,3.6-3.4,5.4-5.1
	c0.5-0.4,0.9-0.6,1.5-0.5c1.5,0.3,3,0.5,4.6,0.7c1.5,0.2,3,0,4.4-0.5c1.3-0.5,2.6-1,3.9-1.6c0.9-0.5,1.9-0.7,3-0.7
	c1.3,0,2.5-0.1,3.8-0.2c2.5-0.1,4.9-0.3,7.4-0.4c3.4-0.1,6.9-0.3,10.3-0.3c5,0,10-0.5,15.1-0.2c3.6,0.2,7.3,0.4,10.9-0.3
	c0.4-0.1,0.7-0.1,1.1-0.1c3.8,0,7.6-0.1,11.5-0.1c1.5,0,3.1,0,4.5-0.6c0.6-0.3,1.4-0.3,2-0.4c2.1-0.3,4.2-0.7,6.3-0.9
	c2.2-0.3,4.3-0.5,6.5-0.7c0.8-0.1,1.5,0.2,2.2,0.8c0.9,0.8,1.9,1.4,3.1,1.7c1.2-1.2,2.2-2.4,2.5-4.1c0.3-1.6,1.3-2.4,2.9-2.6
	c1.1-0.2,2.3-0.3,3.4-0.5c2.8-0.5,5.7-1.2,8.5-1.4c3.6-0.3,6.8-1.6,9.9-3.1c1.1-0.5,1.9-1.3,2-2.6c0.1-0.8,0.4-1.4,1.1-1.8
	c0.4-0.3,0.8-0.8,1.1-1.2c0.7-1.4,1.7-2.6,2.9-3.6c0.6-0.5,1.3-1,2-1.5c0.3,0,0.6,0,0.8,0c0.3,0.1,0.6,0.2,0.9,0.4
	c1.7,1.1,3.5,1.6,5.5,1.3c0.3,0,0.7,0.2,0.9,0.5c0.8,1.2,1.6,2.3,2.2,3.6c0.4,1,1.1,1.5,2,1.7c0.9,0.2,1.5,0.8,2.1,1.3
	c2.1,2.1,4.3,4.3,6.4,6.4c1.4,1.4,3.2,2.3,5.2,2.6c2.3,0.3,4.6,0.6,6.9,0.6c9.5,0.2,18.9,0.3,28.4,0.4c1.5,0,3,0.1,4.5,0.2
	c0.4,0,0.8,0.2,1.1,0.5c0.8,0.7,0.9,1.9,0.2,2.8c-0.5,0.7-1.1,1.4-1.9,2.4c0.8,0,1.3,0,1.7,0c15.7,0,31.5,0,47.2,0
	C599.3,65.5,599.8,65.5,600.3,65.5z"/>
</svg>
