<?xml version="1.0" encoding="utf-8"?>
<!-- Generator: Adobe Illustrator 18.1.1, SVG Export Plug-In . SVG Version: 6.00 Build 0)  -->
<svg version="1.1" id="mountains" xmlns="http://www.w3.org/2000/svg" xmlns:xlink="http://www.w3.org/1999/xlink" x="0px" y="0px"
	 viewBox="0 0 600 300" style="enable-background:new 0 0 600 300;" xml:space="preserve">
<style type="text/css">
	.st0{display:none;fill:url(#_x30__1_);}
	.st1{display:none;fill:url(#_x31__1_);}
	.st2{display:none;fill:url(#_x32__1_);}
	.st3{display:none;fill:url(#_x33__1_);}
	.st4{display:none;fill:url(#_x34__1_);}
	.st5{display:none;fill:url(#_x35__1_);}
	.st6{display:none;fill:url(#_x36__1_);}
	.st7{display:none;fill:url(#_x37__1_);}
	.st8{fill:url(#_x38__1_);}
	.st9{display:none;fill:#333333;}
</style>
<linearGradient id="_x38__1_" gradientUnits="userSpaceOnUse" x1="300.2798" y1="300.2798" x2="300.2798" y2="138.806">
	<stop  offset="0" style="stop-color:#CCCCCC"/>
	<stop  offset="2.682054e-02" style="stop-color:#BBBBBB"/>
	<stop  offset="8.796775e-02" style="stop-color:#9C9C9C"/>
	<stop  offset="0.1571" style="stop-color:#808080"/>
	<stop  offset="0.2348" style="stop-color:#6A6A6A"/>
	<stop  offset="0.3252" style="stop-color:#595959"/>
	<stop  offset="0.4363" style="stop-color:#4D4D4D"/>
	<stop  offset="0.5904" style="stop-color:#464646"/>
	<stop  offset="1" style="stop-color:#444444"/>
</linearGradient>
<path id="_x38_" class="st8" d="M600.3,227.8c0,24.2,0,48.3,0,72.5c-20.1,0-40.1,0-60.2,0c-0.3-0.1-0.7-0.3-1-0.3
	c-4.4-0.1-8.8-0.2-13.1-0.2c-4.5,0-9,0.2-13.6,0.2c-4.5,0-8.9-0.3-13.4-0.2c-5.3,0-10.5,0.3-15.8,0.3c-7,0.1-14,0-21,0
	c-5.7,0-11.4,0-17.1-0.1c-4.5-0.1-9-0.3-13.6-0.3c-4.6,0-9.2,0.3-13.8,0.3c-5.5,0-11-0.1-16.5-0.2c-2.1,0-4.2,0.1-6.3,0.1
	c-2.5,0-5,0-7.6,0c-3.4,0-6.9,0.1-10.3,0.1c-4.1,0-8.1,0-12.2,0c-0.5,0-0.9,0.2-1.4,0.3c-121.1,0-242.2,0-363.2,0
	c0-24.2,0-48.3,0-72.5c0.1-0.3,0.2-0.5,0.2-0.8c0.1-3.5,0.2-7,0.2-10.5c0-2.6-0.2-5.2-0.2-7.8c0-5.1,0-10.3,0-15.4
	c0-1.6,0.2-3.3,0.3-4.9c0.1-0.8,0.3-1.5,0.4-2.4c0.5,0.4,0.8,0.8,1.2,1c1.3,0.9,2.4,2.1,3.9,2.7c2.5,1,4.4,2.8,6.2,4.6
	c1.1,1.2,2.1,2.5,3.1,3.8c0.4,0.5,0.6,1.2,0.9,1.8c1.7,0.1,3.4,0.2,4.4-1.5c0.8,0.1,1.6,0,2.3,0.2c0.7,0.2,1.6,0.4,2.1,0.9
	c1.5,1.2,3,2.6,4.4,3.8c1.7,1.5,3.4,3,5.2,4.5c1.2,1.1,2.7,1.5,4.3,1.5c0.6,0,1.2-0.1,1.7-0.1c1.7,2.2,3.4,4.4,5.2,6.7
	c-0.2,0-0.1,0,0,0c2.5,0.1,4.9,0.3,7.2,1.4c0.3,0.1,0.6,0.2,0.9,0.2c1.6,0.1,3.3,0.1,4.9,0.2c0.7,0,1.3-0.2,1.7-0.8
	c0.5-0.7,1-1.3,1.3-1.8c0.9-0.2,1.8-0.2,2-0.5c0.6-1.2,1.5-1,2.5-1c3.9,0,7.7,0,11.6,0c1,0,1.9-0.1,2.6-0.8c1.1-1.1,2.1-2.3,3.2-3.5
	c1-1.1,1.7-2.3,1.7-3.9c0-0.4,0.2-0.9,0.5-1.2c0.9-1.1,1.9-2.1,2.8-3.1c0.2-0.2,0.4-0.5,0.5-0.8c0.1-0.6,0.4-0.9,1-1
	c1.9-0.5,3.7-1.2,5.2-2.6c0.2-0.2,0.4-0.2,0.6-0.4c2.4-1.3,4.2-3.3,5.3-5.8c0.5-1,1.2-1.4,2.2-1.5c2.2-0.3,4.4-0.8,6.5-1.3
	c0.1,0,0.2-0.1,0.2-0.1c0.6-0.5,1.2-0.5,2-0.4c0.5,0.1,1.1,0.1,1.7,0.1c1.9-0.1,3.8-0.1,5.7-0.3c2.9-0.2,5.7-0.6,8.6-0.9
	c2.1-0.2,4.1-0.6,6.2-0.8c2.4-0.1,4.7,0.2,7.1-0.3c0.3-0.1,0.6,0,0.8,0c2.4,0.1,4.7,0.1,7.1,0.3c2,0.1,3.8-0.4,5.6-1
	c1.1-0.3,2.2-0.6,3.3-0.7c3-0.1,6.1-0.1,9.1-0.1c0.7,0,1.5-0.3,2.2-0.1c2.1,0.3,3.7-0.2,5.2-1.6c1.1-1.1,2.3-1.8,4-1.6
	c0.3,0,0.6-0.1,0.8-0.1c1.5-0.3,2.8-1,3.9-2.1c0.4-0.4,0.9-0.9,1.5-1c2.4-0.4,4.5-1.5,6.5-2.7c2.1-1.4,4.2-3,6.7-3.6
	c0.2,0,0.3-0.2,0.5-0.3c1.4-0.9,2.7-1.8,4.1-2.7c0.8-0.6,1.7-1.2,2.1-2.2c0.3-0.8,0.9-1,1.7-1.3c3.1-1,5.7-2.6,6.3-6.2
	c0-0.2,0.1-0.3,0.2-0.6c1.6-0.2,3-0.8,4.1-2c0.2-0.2,0.5-0.5,0.6-0.8c0.4-1.2,0.7-2.5,1.1-3.7c0.1-0.4,0.3-0.9,0.6-1.3
	c1-1.3,1.9-2.7,3-3.8c1.7-1.7,3.5-3.3,5.3-4.7c0.6-0.5,1.5-0.8,2.3-0.8c2.8,0.1,5.6,0.1,8.3,1.2c0.3,0.1,0.7,0.1,1.1,0.2
	c0.9,0.2,1.8,0.3,2.7,0.5c0.5,0.1,1.1,0.2,1.6,0.3c0.9,0.2,1.8,0.4,2.7,0.6c0.7-0.2,1.4-0.6,2.2-0.7c1.6-0.2,3.1-0.9,4.8-0.8
	c0.1,0,0.3,0,0.4-0.1c1.4-0.9,3.1-0.9,4.7-1.3c1.2-0.3,2.4-0.5,3.6-0.7c1.1-0.2,2.3-0.4,3.4-0.6c0.4-0.1,0.8-0.2,1.1-0.3
	c1,0,2.1,0,3.1,0c0.9,0.5,1.8,0.9,2.7,1.4c2.3,1.4,4.5,2.8,6.7,4.2c1.9,1.1,3.8,2.2,5.8,3.1c2,1,3.1,2.5,3.7,4.6
	c0.1,0.5,0.2,0.9,0.3,1.4c0.3,1.2,1.9,2.7,3.1,2.6c0.7,0,1.1,0.2,1.6,0.6c1.5,1.4,3.3,2.1,5.2,2.6c2,0.5,4.1,1.1,5.4,2.9
	c0.4,0.6,1,0.8,1.7,0.8c1.3,0.1,2.6,0.3,3.9,0.2c0.8,0,1.7-0.2,2.4-0.6c1.3-0.7,2.2-2,3.8-2c0.2,0,0.4-0.2,0.6-0.4
	c0.2-0.1,0.4-0.2,0.6-0.2c3.1-0.3,6.3-0.5,9.3,0.6c1.8,0.6,3.5,0.9,5.3,0.8c2-0.1,4,0.3,5.8,1.2c1.6,0.9,3.4,1.2,5.3,1
	c2-0.1,4-0.1,6,0c0.8,0,1.6,0.2,2.2,0.6c1.1,0.6,2.2,1,3.4,1.3c0.6,0.1,1.1,0.4,1.6,0.8c1.1,0.9,2.1,1.9,3.1,2.8
	c1.1,1,2.3,1.5,3.7,1.7c1.9,0.3,3.7,0.7,5.6,1.1c1,0.2,1.9,0.5,2.9,0.5c2.1,0.1,4.2,0.5,6.3,0.9c1.9,0.4,3.5,0.9,5,2
	c1.5,1.1,3.4,1.5,5.2,2c2.2,0.6,4.4,0.8,6.6,0.9c0.7,0,1.5,0.1,2.2,0.3c2.3,0.6,4.6,0.9,6.9,1.6c3.2,1,6.5,1.6,9.8,2.4
	c1.8,0.5,3.6,0.9,5.3,1.7c1.1,0.5,2.2,0.7,3.4,0.7c1.4,0,2.7,0,4.1,0c1,0.1,2,0.2,3,0.4c1.6,0.2,3.1,0.5,4.7,0.7
	c1.2,0.2,2.5,0.5,3.7,0.7c0.4,0.1,0.8,0.3,1.2,0.3c2.6,0.2,5,1.1,7.3,2.2c1,0.5,2,1,3.1,1.2c3.8,0.4,7.6,0.7,11.4,0.9
	c3.1,0.2,6.1,0.4,9.2,0.6c1.6,0.1,3.3,0.1,4.9,0.3c2.8,0.4,5.6,0.9,8.4,1.4c0.5,0.1,0.9,0.2,1.4,0.2c3.6,0.2,7.2,0.4,10.8,0.5
	c0.6,0,1.2,0.1,1.6,0.6c0.4,0.5,1,0.7,1.6,0.7c2.1,0,4,0.7,5.7,1.8c1.2,0.8,2.5,0.9,3.9,0.9c1.3,0,2.6,0.1,3.9,0.5
	c3,1,6,1.5,9.2,1.6c2.9,0.1,5.9,0.1,8.8,0.1c0.5,0,0.9,0,1.4,0.1c2.5,0.5,4.9,1,7.3,1.6c1.3,0.3,2.5,0.5,3.8,0.6
	c1.5,0.1,3,0.2,4.4,0.5c2.1,0.5,4.3,0.8,6.1,2.2c0.3,0.2,0.7,0.3,1,0.4c0.9,0.4,1.9,0.8,2.7,1.4c2.2,1.5,4.4,2.5,7.2,2.2
	c1.3-0.1,2.7,0,4,0.4c1.6,0.5,3.2,0.7,4.8,0.7c2.6-0.1,4.8,0.7,7,2.1c0.7,0.5,1.5,1,2.3,1.2c2.6,0.5,5.2,0.9,7.8,1.3
	c0.7,0.1,1.5,0.3,2.2,0.4c1.5,0.2,3,0.5,4.5,0.7c1,0.1,2,0.2,3.1,0.3c0,0.6,0,1.2,0,1.7c0,2.7,0,5.3,0,8
	C600.1,226.8,600.2,227.3,600.3,227.8z"/>
</svg>
