<?xml version="1.0" encoding="utf-8"?>
<!-- Generator: Adobe Illustrator 18.1.1, SVG Export Plug-In . SVG Version: 6.00 Build 0)  -->
<svg version="1.1" id="mountains" xmlns="http://www.w3.org/2000/svg" xmlns:xlink="http://www.w3.org/1999/xlink" x="0px" y="0px"
	 viewBox="0 0 600 300" style="enable-background:new 0 0 600 300;" xml:space="preserve">
<style type="text/css">
	.st0{display:none;fill:url(#_x30__1_);}
	.st1{display:none;fill:url(#_x31__1_);}
	.st2{display:none;fill:url(#_x32__1_);}
	.st3{fill:url(#_x33__1_);}
	.st4{display:none;fill:url(#_x34__1_);}
	.st5{display:none;fill:url(#_x35__1_);}
	.st6{display:none;fill:url(#_x36__1_);}
	.st7{display:none;fill:url(#_x37__1_);}
	.st8{display:none;fill:url(#_x38__1_);}
	.st9{display:none;fill:#333333;}
</style>
<linearGradient id="_x33__1_" gradientUnits="userSpaceOnUse" x1="300.2798" y1="300.4198" x2="300.2798" y2="67.4281">
	<stop  offset="0" style="stop-color:#CCCCCC"/>
	<stop  offset="0.3052" style="stop-color:#BBBBBB"/>
	<stop  offset="1" style="stop-color:#999999"/>
</linearGradient>
<path id="_x33_" class="st3" d="M600.3,209.2c0,30.4,0,60.8,0,91.2c-200,0-400,0-600,0c0-74.3,0-148.7,0-223
	c0.1-0.4,0.2-0.9,0.2-1.3c0.1-0.7,0.2-1.4,0.3-2.1c0.2-0.8,0.7-1.3,1.6-1.3c1.3,0,2.6-0.1,3.9-0.2c2.3-0.1,4.6-0.1,6.9-0.2
	c2.5-0.1,4.9-0.3,7.4-0.4c0.4,0,0.7-0.1,1.1-0.1c3.2-0.3,6.4-0.7,9.6-1c1.1-0.1,2.2,0,3.4,0c1.5,0,3-0.2,4.4-0.7
	c0.7-0.2,1.5-0.3,2.2-0.4c2.5-0.2,5-0.3,7.5-0.5c0.4,0,0.8,0,1.3,0c2.6,0.1,5.1,0.2,7.7,0.3c2.2,0,4.4-0.1,6.6-0.1
	c4.8-0.1,9.5-0.1,14.3-0.2c0.3,0,0.7,0.1,1-0.1c0.8-0.3,1.4,0.1,2.1,0.4c0.9,0.4,1.7,1,2.7,1.1c1.2,0.3,2.4,0.6,3.4,1.3
	c1.8,1.2,3.8,1.4,5.9,1.3c2.1-0.1,4.2-0.2,6.3-0.2c1.3,0,2.5-0.1,3.7-0.6c0.6-0.2,1.3-0.4,1.9-0.4c2.7-0.2,5.5-0.4,8.2-0.5
	c1.2,0,2.2-0.3,3.1-1.2c0.5-0.5,1.2-0.7,1.9-0.7c1,0,2-0.2,3-0.5c1.8-0.6,3.5-1.5,5.4-1.3c0.2,0,0.4-0.1,0.5-0.1
	c2.8-0.4,5.7-0.5,8.5,0.1c2.3,0.4,4.5,1.1,6.8,1.6c0.6,0.2,1.3,0.3,1.8,0.6c0.9,0.5,1.9,0.7,2.9,0.8c1.8,0.2,3.5,0.9,4.8,2.2
	c1.3,1.3,2.8,2.1,4.6,2.4c0.9,0.1,1.8,0.5,2.6,1c1,0.6,2,1.1,3.1,1.1c0.8,0,1.4,0.3,2,0.9c1,1.1,2.1,2.1,3.2,3.1
	c0.5,0.5,1.1,1,1.7,1.1c1.3,0.1,2.3,0.5,3.4,1.2c0.2,0.1,0.3,0.2,0.5,0.2c1.3,0.2,2.5,0.8,3.7,1c2.2,0.3,4.3,0.8,6.4,1.3
	c1.1,0.2,2.3,0.1,3.5,0.2c1.2,0.1,2.4,0.1,3.5,0.4c1.5,0.4,2.9,0.6,4.4,0.7c1.1,0,2.1,0.1,3.2,0c1.9,0,3.5,0.8,5,1.9
	c1.1,0.9,2.2,1.7,3.3,2.6c0.5,0.4,0.9,0.8,1.3,1.2c1.4,1.7,2.6,3.5,4,5.2c2.3,2.6,1.6,2.2,5.3,2.6c0.6,0.1,1,0.2,1.5,0.5
	c1.3,0.9,2.7,1.6,4.4,1.7c0.5,0,1,0.2,1.5,0.4c0.8,0.2,1.5,0.5,2.3,0.6c1,0.1,1.9,0.4,2.5,1.2c0.3,0.4,0.7,0.7,1,1
	c0.2,0.2,0.6,0.4,0.8,0.4c1.4,0,2.8,0.2,4.1-0.4c1.3-0.6,2.7-0.5,4.1-0.3c3.9,0.7,7.8,1.4,11.7,2.1c2.3,0.5,4.6,1.1,6.3,3
	c1,1.1,2.3,2.1,3.3,3.3c0.8,0.9,1.7,1.1,2.8,1.2c1.8,0,3.6,0,5.3,0.4c5.4,1.3,10.8,2.7,16.2,4.3c3.4,1,6.8,1.6,10.3,1.5
	c1,0,1.9,0.2,2.6,1.1c1.6,1.9,3.7,2.8,6.2,2.6c0.9-0.1,1.5,0.2,2.1,0.8c1.1,1.1,2.2,2.2,3.4,3.1c3,2.3,5.8,4.9,8.4,7.6
	c0.6,0.6,1.2,1.1,1.8,1.6c1.5-0.5,2.8-0.8,4-1.3c1.4-0.6,2.4-0.2,3.6,0.7c1.9,1.6,3.8,3.3,6.2,4.3c2,0.8,3.9,1.5,6,1.7
	c0.7,0,1.4,0.3,2.1,0.6c0.8,0.3,1.7,0.6,2.5,0.9c2.4,0.8,4.9,1.1,7.2,2.2c0.5,0.3,1.1,0.4,1.7,0.6c3.3,1,6.6,2,9.9,2.8
	c5.9,1.5,11.6,3.6,17.2,5.8c2.1,0.9,4.2,1.8,6.5,1.7c0.7,0,1.1,0.4,1.5,0.8c3.9,3.6,8.5,6,13.6,7.4c0.9,0.2,1.8,0.6,2.6,1
	c1.2,0.5,2.3,0.9,3.6,0.9c0.6,0,1.1-0.1,1.7,0c0.6,0.1,1.2,0.3,1.6,0.6c3.2,2.7,6.8,4.5,10.5,6.3c0.7,0.3,1.5,0.6,2.3,0.5
	c1.4-0.1,2.4,0.5,3.5,1.4c1.9,1.8,3.9,3.6,6.2,5c0.9,0.5,1.8,1,2.5,1.7c1.6,1.6,3.5,2.5,5.8,2.3c0.9-0.1,1.5,0.3,2.1,0.9
	c1.7,1.7,3.4,3.4,5.2,5.1c0.8,0.7,1.7,1.4,2.6,1.8c2.9,1.4,5.9,2.7,8.9,3.9c1.1,0.4,2.3,0.7,3.4,0.7c1.6,0,2.9,0.4,4,1.6
	c1,1,2.1,1.5,3.5,1.3c0.8-0.1,1.5,0.2,2.1,0.8c1.3,1.3,2.6,2.6,4,3.8c1.9,1.6,4,2.6,6.6,2.5c14.3,0,28.5,0,42.8,0
	C551.6,209.2,575.9,209.2,600.3,209.2z"/>
</svg>
