<?xml version="1.0" encoding="utf-8"?>
<!-- Generator: Adobe Illustrator 18.1.1, SVG Export Plug-In . SVG Version: 6.00 Build 0)  -->
<svg version="1.1" id="mountains" xmlns="http://www.w3.org/2000/svg" xmlns:xlink="http://www.w3.org/1999/xlink" x="0px" y="0px"
	 viewBox="0 0 600 300" style="enable-background:new 0 0 600 300;" xml:space="preserve">
<style type="text/css">
	.st0{display:none;fill:url(#_x30__1_);}
	.st1{display:none;fill:url(#_x31__1_);}
	.st2{display:none;fill:url(#_x32__1_);}
	.st3{display:none;fill:url(#_x33__1_);}
	.st4{display:none;fill:url(#_x34__1_);}
	.st5{display:none;fill:url(#_x35__1_);}
	.st6{display:none;fill:url(#_x36__1_);}
	.st7{fill:url(#_x37__1_);}
	.st8{display:none;fill:url(#_x38__1_);}
	.st9{display:none;fill:#333333;}
</style>
<linearGradient id="_x37__1_" gradientUnits="userSpaceOnUse" x1="300.2798" y1="300.2798" x2="300.2798" y2="29.944">
	<stop  offset="0" style="stop-color:#CCCCCC"/>
	<stop  offset="5.740225e-02" style="stop-color:#B5B5B5"/>
	<stop  offset="0.1478" style="stop-color:#979797"/>
	<stop  offset="0.2484" style="stop-color:#7F7F7F"/>
	<stop  offset="0.3613" style="stop-color:#6C6C6C"/>
	<stop  offset="0.4935" style="stop-color:#5F5F5F"/>
	<stop  offset="0.6631" style="stop-color:#575757"/>
	<stop  offset="1" style="stop-color:#555555"/>
</linearGradient>
<path id="_x37_" class="st7" d="M567.3,29.9c0.5,0,0.9,0,1.4,0c0.9,0.6,1.7,1.2,2.6,1.8c0.7,0.4,1.3,0.9,2,1.2
	c1.6,0.7,3.2,1.1,5,1.2c0.5,0,1.2,0.2,1.5,0.5c2.1,2.2,4.6,4.1,5.9,7c1.1-0.1,2.1-0.2,3.2-0.2c2.8,0.1,5.6,0.2,8.4,0.3
	c1,0,1.9,0.3,2.8,0.9c0,0.7,0,1.4,0,2.1c0,0.5,0.2,1,0.3,1.4c0,84.7,0,169.4,0,254.1c-200,0-400,0-600,0c0-28.5,0-56.9,0-85.4
	c0.1-0.6,0.3-1.2,0.2-1.7c-0.3-2.7,0.7-5.1,1.9-7.5c0.4-0.7,0.8-1.2,1.7-1.3c1.3-0.2,2.5-0.8,3.5-1.6c0.5-0.4,1-0.7,1.6-0.8
	c1.5-0.4,3.1-0.9,4.6-1.1c2.3-0.3,4.5-0.6,6.8-0.6c2.3,0,4.2-0.6,5.7-2.3c0.7-0.7,1.1-1.4,1-2.3c0-0.6,0.1-1.2,0-1.8
	c-0.1-1.1,0.3-2,1.1-2.7c2-1.7,3.9-3.5,5.8-5.2c1.4-1.3,3.2-1.9,5.1-2.2c2.6-0.4,5.2-0.3,7.8-0.2c2,0.1,4.1,0.4,6.1,0.4
	c2.3,0.1,4.6,0.1,6.9,0c2.7-0.1,5.5-0.2,8.2-0.6c1.8-0.3,3.7-0.5,5.5-0.5c0.5,0,0.9-0.1,1.4-0.3c1.8-0.8,3.6-1.6,5.4-2.3
	c0.5-0.2,1-0.4,1.6-0.5c1.3-0.2,2.5-0.7,3.7-1c1.7-0.5,2.9-1.5,4.2-2.6c1.2-1,2.4-2.1,3.8-2.9c3.3-1.9,6.7-3.7,9.4-6.5
	c0.3-0.3,0.6-0.5,0.9-0.7c1.7-1.5,3.5-3,5.2-4.4c1.2-1,2.5-2.1,3.8-3.1c0.3-0.2,0.6-0.4,1-0.5c2.1-0.3,4.2-0.5,6.2-0.8
	c0.4-0.1,1-0.2,1.2-0.5c1.5-1.4,3.2-1.8,5.3-1.8c4.8,0.1,9.7,0.1,14.6,0c2.8-0.1,5.6-0.9,8.4,0c5.7,0,11.5,0,17.2,0
	c0.2,0,0.5,0,0.7-0.1c2.9-1.1,5.9-1,9-1c3.8,0,7.6,0,11.5,0c0.5,0,1.1,0,1.5-0.3c1.1-0.7,2.3-0.9,3.5-1.2c1.9-0.4,3.9-0.7,5.7-1.3
	c1.1-0.3,2.1-0.6,3.3-0.6c2.1-0.1,4.2-0.2,6.3-0.3c0.3,0,0.6-0.1,1-0.2c1.1-0.2,2.2-0.5,3.3-0.7c2-0.4,3.9-0.9,5.5-2.5
	c1.2-1.2,2.7-1.9,4.4-2.4c0.5-0.2,1.1-0.4,1.4-0.8c2-2.1,3.9-4.3,5.8-6.5c1.2-1.4,2.4-2.7,4.1-3.6c0.8-0.4,1.5-0.9,2.2-1.5
	c0.5-0.4,1-0.6,1.7-0.6c1.9,0,3.8,0,5.7,0c0.5,0,1,0,1.3-0.2c0.8-0.5,1.7-0.6,2.6-0.6c3.5-0.1,7-0.2,10.5-0.3c0.9,0,1.7-0.3,2.6-0.4
	c0.2,0,0.5-0.2,0.7-0.1c1.4,0.6,2.9,0.8,4,1.9c1.1,1.2,2.3,2.3,3.5,3.4c0.5,0.5,0.9,0.6,1.6,0.6c1.6-0.1,3.3-0.1,4.9-0.2
	c1.5-0.1,2.7,0.4,3.9,1.2c1.1,0.7,2.2,1.5,3.3,2c1.4,0.6,2.6,1.3,3.7,2.4c0.2,0.2,0.5,0.4,0.8,0.4c2.3,0.4,4.6,0.8,6.9,1
	c3.6,0.3,7.1-0.3,10.6-0.7c2.1-0.2,4.3-0.2,6.2-1.3c0.2-0.1,0.4-0.1,0.5-0.1c1.9-0.3,3.8-0.2,5.7-0.7c1.3-0.3,2.5-0.6,3.7-1
	c2.4-0.9,4.8-1.9,7.4-1.8c1.4,0,2.6-0.5,3.6-1.4c0.7-0.6,1.3-0.9,2.2-1c1.6-0.1,2.6-1.2,3.4-2.5c0.8-1.3,1.3-2.7,2-4
	c0.7-1.4,1.8-2.5,3.2-3.2c2.3-1.1,4.5-2.4,6.8-3.6c1.1-0.6,2.3-1.2,3.5-1.2c1.5,0.1,2.5-0.7,3.5-1.7c1.9-2.1,3.9-4.1,5.8-6.2
	c0.6-0.6,1.2-0.9,2.1-0.9c4.2-0.1,8.5-0.2,12.7-0.3c0.3,0,0.7,0,1-0.1c0.8-0.3,1.6-0.7,2.4-0.9c0.9-0.1,1.8-0.1,2.7-0.6
	c0.4-0.2,0.9-0.5,1.4-0.5c2.3-0.4,4.2-1.6,6.1-3c2.3-1.6,4.3-3.7,7.1-4.6c2.5-0.7,4.9-1.6,7.6-1.6c2.5,0,4.9-0.1,7.4-0.2
	c0.5,0,1-0.2,1.4-0.4c0.6-0.3,1.2-0.6,1.8-1c0.9-0.5,1.9-1.1,2.7-1.7c0.7-0.5,1.2-1.2,1.9-1.7c0.3-0.3,0.8-0.5,1.2-0.5
	c1.1-0.1,2.1,0,3.2,0c2.2,0.1,4.4,0.2,6.6,0.2c0.3,0,0.8-0.1,1-0.3c1.7-1.6,3.9-2.3,6-3.1c1-0.4,2-0.7,3.1-0.9
	c2.8-0.5,5.7-0.8,8.5-1.4c2.8-0.5,5.5-1.4,7.4-3.8c0.5-0.6,1.2-1,1.9-1.4c1.3-0.8,2.7-1.6,4.1-2.3c0.8-0.5,1.6-0.9,2.5-1.3
	c0.6-0.3,1.2-0.3,1.7,0.2c0.4,0.5,1,0.5,1.6,0.6c1.3,0.3,2.4-0.1,3.4-0.7c0.4-0.2,0.9-0.4,1.3-0.5c1.6-0.3,3.2-0.8,4.6-1.6
	c0.4-0.3,1-0.4,1.4-0.6c0.5-0.3,1.1-0.5,1.5-0.9c1.3-1.3,2.7-2.4,4.6-2.8c0.3-0.1,0.6-0.3,0.9-0.4c1.5-0.6,3.1-1.4,4.6-1.9
	c0.9-0.3,1.8-0.4,2.7-0.6c2.7-0.6,5.4-1,7.9-2c1.8-0.7,3.3-1.6,4.3-3.3c0.6-1,1.1-2,1.8-3c0.7-1,1.2-2.1,1.8-3.1
	c1-1.6,2.2-3.3,3.7-4.5c1.5-1.1,3.1-2.1,4.6-3.2c2-1.5,4.2-2.6,6.6-3.3c0.8-0.2,1.6-0.6,2.1-1.2c0.7-0.8,1.6-1.2,2.6-1.5
	c1.5-0.4,2.9-1.3,4.5-1.3c0.1,0,0.2-0.1,0.4-0.2c0.8-0.2,1.6-0.5,2.4-0.6c3.1-0.2,6.1-0.3,9.2-0.3c1.7,0,3.2-0.8,4.9-1.2
	c0.2-0.1,0.5-0.3,0.7-0.5c2.5-2.6,5.1-5.2,7.4-8c1.2-1.4,2.5-2.4,4.3-2.9c0.8-0.2,1.5-0.4,2.3-0.6C566.3,30.4,566.8,30.1,567.3,29.9
	z"/>
</svg>
