<?xml version="1.0" encoding="utf-8"?>
<!-- Generator: Adobe Illustrator 18.1.1, SVG Export Plug-In . SVG Version: 6.00 Build 0)  -->
<svg version="1.1" id="mountains" xmlns="http://www.w3.org/2000/svg" xmlns:xlink="http://www.w3.org/1999/xlink" x="0px" y="0px"
	 viewBox="0 0 600 300" style="enable-background:new 0 0 600 300;" xml:space="preserve">
<style type="text/css">
	.st0{display:none;fill:url(#_x30__1_);}
	.st1{fill:url(#_x31__1_);}
	.st2{display:none;fill:url(#_x32__1_);}
	.st3{display:none;fill:url(#_x33__1_);}
	.st4{display:none;fill:url(#_x34__1_);}
	.st5{display:none;fill:url(#_x35__1_);}
	.st6{display:none;fill:url(#_x36__1_);}
	.st7{display:none;fill:url(#_x37__1_);}
	.st8{display:none;fill:url(#_x38__1_);}
	.st9{display:none;fill:#333333;}
</style>
<linearGradient id="_x31__1_" gradientUnits="userSpaceOnUse" x1="0.2799" y1="166.0914" x2="600.2798" y2="166.0914">
	<stop  offset="0" style="stop-color:#CCCCCC"/>
	<stop  offset="0.1371" style="stop-color:#C5C5C5"/>
	<stop  offset="0.4258" style="stop-color:#BDBDBD"/>
	<stop  offset="1" style="stop-color:#BBBBBB"/>
</linearGradient>
<path id="_x31_" class="st1" d="M600.3,88.3c0,70.7,0,141.4,0,212.1c-200,0-400,0-600,0c0-55.4,0-110.8,0-166.2
	c0.2-0.4,0.4-0.8,0.4-1.2c0-2.1,0-4.1,0-6.2c-0.1-5.4-0.2-10.7-0.2-16.1c0-0.9,0.3-1.3,1.2-1.5c0.4-0.1,0.8-0.1,1.3-0.1
	c2.8-0.1,5.7-0.1,8.5-0.2c10-0.2,19.9-0.4,29.9-0.5c3.1,0,6.2-0.3,9.3-1c2.4-0.5,4.7-1,7.1-1.3c4.3-0.5,8.5-0.8,12.8-1.3
	c3.9-0.4,7.8-0.8,11.7-1.2c3.4-0.3,6.9-0.6,10.3-0.9c1.8-0.2,3.5-0.5,5.2-0.9c1.4-0.4,2.8-0.7,4.2-0.7c4.2,0,8.5-0.1,12.7-0.1
	c0.7,0,1.2-0.1,1.8-0.6c2.4-2.6,5.4-4.4,8.4-6.2c2.5-1.5,5.1-2.5,8.1-2.2c0,0,0.1,0,0.1,0c7-0.2,14.1-0.4,21.1-0.5
	c1.4,0,2.6-0.2,3.6-1.4c0.6-0.8,1.5-1.1,2.5-1c1.6,0,3.2,0,4.8,0c8.5-0.1,17.1-0.3,25.6-0.4c1.2,0,2.4-0.2,3.6-0.2
	c0.8-0.1,1.7-0.2,2.5-0.2c2.6-0.1,5.2-0.1,7.8-0.1c0.6,0,1.1-0.2,1.5-0.6c1.1-1.1,2.2-2.1,3.4-3.1c0.3-0.3,0.7-0.7,1.1-0.7
	c1.8-0.4,3.6-0.7,5.4-0.9c1.2-0.2,2.5-0.2,3.8-0.3c2.6-0.2,5.3-0.6,7.9-0.6c5.5-0.2,10.9-0.2,16.4-0.3c1.3,0,2.8,0.3,3.9-0.2
	c1.2-0.5,2-1.8,3-2.7c1-1,1.9-2.2,3.5-2.4c0.3,0,0.5-0.2,0.7-0.4c0.6-0.5,1.2-0.6,1.9-0.6c1.3-0.1,2.7-0.2,4-0.4
	c1-0.2,2.1-0.6,3.1-0.8c0.8-0.1,1.4-0.4,1.9-1c0.6-0.7,1.2-1.3,1.8-1.9c0.3-0.3,0.7-0.5,1.1-0.5c1.4-0.1,2.8-0.1,4.2-0.1
	c2.3,0,4.5,0.6,6.8-0.3c0.2-0.1,0.6-0.1,0.8-0.1c1.6,0,3.2-0.1,4.8-0.1c0.6,0,1.2-0.1,1.7-0.5c0.8-0.7,1.6-1.6,2.5-1.9
	c1.5-0.6,3.1-1,4.7-1.1c3.6-0.2,7.2-0.1,10.8-0.1c1.1,0,2.2-0.1,3.2-0.8c0.3-0.2,0.7-0.3,1-0.3c0.8,0.1,1.3-0.3,1.8-0.8
	c0.3-0.4,0.8-0.7,1.1-1.1c0.7-0.9,1.7-1.3,2.8-1.4c0.8-0.1,1.6-0.4,2.4-0.6c0.9-0.3,1.7-0.8,2.6-1c1.5-0.4,2.8-1.2,3.9-2.3
	c0.4-0.4,0.9-0.8,1.3-1.3c1.1-1.3,2.6-1.8,4.3-1.7c0.1,0,0.3,0,0.4,0c1.4-0.1,2.4,0.4,3.2,1.5c0.5,0.7,1.2,1.3,1.9,1.9
	c0.4,0.3,1,0.5,1.5,0.5c1.4,0,2.8-0.1,4.2-0.3c1.4-0.1,2.8-0.3,4.1-0.6c1-0.2,2-0.7,3-1.1c0.4-0.2,0.8-0.3,1.1-0.6
	c0.7-0.6,1.5-0.9,2.4-1.1c1.6-0.3,3.3-0.4,4.8-1c1.1-0.4,2.2-0.6,3.4-0.7c1.6-0.1,3.3-0.2,4.9-0.3c4.1-0.1,8.2-0.2,12.3-0.3
	c0.4,0,0.7-0.2,1.1-0.2c1-0.1,2-0.3,3-0.3c0.8,0,1.6,0.3,2.5,0.2c3.1-0.1,6.2-0.4,9.3-0.5c2.7-0.1,5.3,0,8,0c0.5,0,0.9,0,1.4-0.2
	c2.5-0.7,4.8-1.9,6.2-4.2c0.1-0.2,0.3-0.4,0.4-0.5c0.8-0.9,2.1-0.7,2.8,0.3c0.5,0.7,0.9,1.6,1.6,2.1c1.5,1.2,3.5,1.5,5.3,2.1
	c0.1,0,0.3,0,0.4,0c1,0,2.1,0,3.1,0c2-0.1,3.9-0.2,5.6-1.5c0.2-0.2,0.6-0.3,0.9-0.4c1.4-0.5,2.8-0.8,4.1-1.5c1.9-1,4.1-1.6,4.8-4.1
	c0.3,0.1,0.6,0,0.8,0.2c0.9,0.6,1.9,0.5,2.8,0.3c0.3-0.1,0.6,0,0.8-0.1c1.9-0.4,3.8-0.5,5.5-1.5c0.9-0.5,1.9-0.8,2.9-1.2
	c0.6,1,1.2,1.9,1.8,2.8c0.5,0.8,1.2,1.4,2.1,1.8c2,0.8,3.7,0.2,4.9-1.5c0.2-0.2,0.3-0.5,0.6-0.6c1.3-0.8,2.6-1.7,3.9-2.4
	c0.8-0.4,1.7-0.5,2.6-0.5c2.1,0,4,0.7,5.9,1.5c1.7,0.7,3,0.5,4.1-1c0.8-1.1,1.8-1.6,3.1-2c1.8-0.5,3.4-1.1,4.7-2.6
	c1.7-2.1,4.3-2.6,6.8-3.3c0.1,0,0.2,0,0.3,0c1.6,0.6,3.2,0.2,4.8,0.2c1.9,0,3.8-0.4,5.7-0.2c2.3,0.2,4.3-0.6,6.2-1.7
	c0.3-0.2,0.6-0.5,0.8-0.7c0.1,0,0.2,0,0.3,0c1,0.9,2,1.8,3,2.8c2.1,2.1,4.2,4.2,6.3,6.3c0.7,0.8,1.6,1.2,2.6,1.5
	c3.1,0.8,6.2,1.7,9.3,2.6c0.9,0.3,1.7,0.3,2.6,0.1c2.9-0.8,5.9-1.2,9-1.3c0.7,0,1.1,0.2,1.6,0.7c0.8,1,1.7,1.9,2.6,2.7
	c0.7,0.6,1.1,1.3,1,2.2c2.3,1,6.4,2,8.9,2c2.5,0.1,5,0.1,7.5,0.1c0.7,0,1.3,0.2,1.8,0.8c1.5,1.6,3.1,3.1,4.6,4.7
	c0.6,0.5,1.2,1,1.9,1.4c1.1,0.7,2.2,1.4,3.2,2.2c0.8,0.6,1.5,1.3,2.6,1.5c0.6,0.1,1.1,0.5,1.6,0.9c1,0.9,2.1,1.7,3,2.7
	c1.8,1.8,3.6,3.6,5.4,5.3c0.4,0.4,0.9,0.7,1.4,0.8c0.8,0.1,1.2,0.5,1.7,1c1.3,1.2,1.9,2.6,1.6,4.3c0,0.3,0,0.6,0,0.8
	c-0.1,0.7,0.2,1.1,0.6,1.6c0.7,0.7,1.4,1.4,1.9,2.2c1,1.6,2.2,2.9,3.5,4.2c0.6,0.6,1.2,1.2,1,2.2C599.3,88.3,599.8,88.3,600.3,88.3z
	"/>
</svg>
